<svg width="46" height="43" viewBox="0 0 46 43" fill="none" xmlns="http://www.w3.org/2000/svg">
<path d="M40.9794 38.3802L22.5159 42.6493L4.10318 38.3862L0 0.00311279H45.0869L40.9794 38.3802Z" fill="#264DE4"/>
<path d="M22.5434 39.3862L37.4628 35.9365L40.973 3.14154H22.5434V39.3862Z" fill="#2965F1"/>
<path d="M22.5435 17.3772H9.40649L9.91239 22.0847H22.5435V17.3772Z" fill="#EBEBEB"/>
<path d="M22.524 7.84912H8.39001L8.90311 12.5567H22.5435V7.84912H22.524Z" fill="#EBEBEB"/>
<path d="M22.5188 29.6087L16.2326 28.1931L15.8308 24.4386H12.7762H10.1647L10.9555 31.8301L22.5176 34.5071L22.5436 34.501V29.6032L22.5188 29.6087Z" fill="#EBEBEB"/>
<path d="M30.4775 12.5567L29.9639 17.3773H22.5239V22.0848H29.4744L28.8192 28.1901L22.5239 29.6072V34.5048L34.0953 31.8301L34.1802 31.0348L35.5065 18.6414L35.6443 17.3773L36.6633 7.84912H22.5239V12.5567H30.4775Z" fill="white"/>
</svg>
