<svg width="40" height="43" viewBox="0 0 40 43" fill="none" xmlns="http://www.w3.org/2000/svg">
<path d="M17.9565 0.710815H26.2857V32.9309C22.0129 33.6089 18.8759 33.88 15.4687 33.88C5.30031 33.8798 0 30.0384 0 22.6704C0 15.5739 5.62517 10.964 14.3326 10.964C15.6846 10.964 16.7122 11.0541 17.9563 11.3253L17.9565 0.710815ZM17.9565 16.929C16.983 16.6581 16.1718 16.5677 15.1442 16.5677C10.9255 16.5677 8.49156 18.7374 8.49156 22.5339C8.49156 26.2405 10.8175 28.2744 15.0901 28.2744C16.0091 28.2744 16.7666 28.2292 17.9565 28.0939V16.929ZM40 11.213V27.0324C40 32.4829 39.4942 35.0972 37.9768 37.3574C36.5714 39.5292 34.7165 40.9025 30.8947 42.4093L22.8571 39.396C26.6791 37.9781 28.5339 36.7377 29.7141 34.8316C30.9509 32.8819 31.3446 30.622 31.3446 24.6841V11.2131L40 11.213ZM31.3448 0.710815H40V7.7122H31.3448V0.710815Z" fill="#43A047"/>
</svg>
