<svg width="34" height="43" viewBox="0 0 34 43" fill="none" xmlns="http://www.w3.org/2000/svg">
<path d="M8.4538 42.6462C13.1203 42.6462 16.9076 39.4619 16.9076 35.5385V28.4308H8.4538C3.7873 28.4308 0 31.615 0 35.5385C0 39.4619 3.7873 42.6462 8.4538 42.6462Z" fill="#0ACF83"/>
<path d="M0 21.3231C0 17.3996 3.7873 14.2154 8.4538 14.2154H16.9076V28.4308H8.4538C3.7873 28.4308 0 25.2465 0 21.3231Z" fill="#A259FF"/>
<path d="M0 7.10769C0 3.18425 3.7873 0 8.4538 0H16.9076V14.2154H8.4538C3.7873 14.2154 0 11.0311 0 7.10769Z" fill="#F24E1E"/>
<path d="M16.9076 0H25.3614C30.0279 0 33.8152 3.18425 33.8152 7.10769C33.8152 11.0311 30.0279 14.2154 25.3614 14.2154H16.9076V0Z" fill="#FF7262"/>
<path d="M33.8152 21.3231C33.8152 25.2465 30.0279 28.4308 25.3614 28.4308C20.6949 28.4308 16.9076 25.2465 16.9076 21.3231C16.9076 17.3996 20.6949 14.2154 25.3614 14.2154C30.0279 14.2154 33.8152 17.3996 33.8152 21.3231Z" fill="#1ABCFE"/>
</svg>
