<svg width="46" height="44" viewBox="0 0 46 44" fill="none" xmlns="http://www.w3.org/2000/svg">
<path d="M45.0869 0.501587L40.9794 38.8787L22.5159 43.1477L4.10318 38.8847L0 0.501587H45.0869Z" fill="#E44D26"/>
<path d="M22.5435 39.8846L37.4629 36.4349L40.973 3.63989H22.5435V39.8846Z" fill="#F16529"/>
<path d="M14.5586 13.0551H22.5435V8.34753H8.38995L8.52507 9.6105L9.91235 22.5832H22.5435V17.8757H15.0744L14.5586 13.0551Z" fill="#EBEBEB"/>
<path d="M15.8307 24.9371H10.1646L10.9553 32.3286L22.5175 35.0055L22.5435 34.9995V30.1017L22.5187 30.1072L16.2325 28.6915L15.8307 24.9371Z" fill="#EBEBEB"/>
<path d="M22.5239 22.5831H29.4744L28.8192 28.6884L22.5239 30.1055V35.0031L34.0953 32.3284L34.1802 31.5331L35.5065 19.1397L35.6443 17.8756H22.5239V22.5831Z" fill="white"/>
<path d="M22.5239 13.0436V13.0551H36.1579L36.2711 11.997L36.5283 9.6105L36.6633 8.34753H22.5239V13.0436Z" fill="white"/>
</svg>
