<svg width="51" height="43" viewBox="0 0 51 43" fill="none" xmlns="http://www.w3.org/2000/svg">
<path d="M0 0H50.7228V42.6462H0" fill="#F7DF1E"/>
<path d="M32.098 30.8185C33.2208 32.4289 34.7068 33.234 36.5561 33.234C38.8677 33.234 40.0235 32.4844 40.0235 30.9851C40.0235 30.0689 38.5374 29.236 36.1598 28.403C31.7348 27.1814 29.5553 25.0991 29.6213 22.156C29.6213 19.1575 32.2962 16.8253 36.5561 16.8253C39.7263 16.8253 41.9718 17.9081 43.2927 20.0737L39.6272 22.0727C38.8346 20.8511 37.8109 20.268 36.5561 20.3236C35.1031 20.3791 34.3436 20.9622 34.2775 22.0727C34.2775 23.2388 35.1691 23.7386 38.1412 24.8214C42.4011 26.2374 44.7787 27.82 44.7787 31.235C44.5806 34.8444 41.9718 36.7046 36.9523 36.8156C32.7915 36.8156 29.8525 35.4552 28.1353 32.7343L32.098 30.8185ZM15.2565 31.1517C16.049 32.2345 16.5444 33.234 18.5257 33.234C20.1108 33.234 20.9033 32.4011 20.9033 30.7352V16.9085H25.6586V30.5686C25.5926 34.5112 23.2149 36.5102 18.5257 36.5658C15.0253 36.5102 12.6477 35.2886 11.3928 32.9009L15.2565 31.1517Z" fill="black"/>
</svg>
