<svg width="58" height="70" viewBox="0 0 58 70" fill="none" xmlns="http://www.w3.org/2000/svg">
<path d="M15.44 62.6626C12.3002 62.6626 9.46667 62.1456 6.93949 61.1118C4.41231 60.1162 2.30632 58.6421 0.621538 56.6892L7.9159 48.0738C8.98803 49.3757 10.041 50.3713 11.0749 51.0605C12.1087 51.7115 13.1809 52.0369 14.2913 52.0369C17.2014 52.0369 18.6564 50.3713 18.6564 47.04V26.0185H4.98667V15.7949H32.039V46.2359C32.039 51.7497 30.6222 55.866 27.7887 58.5846C24.9552 61.3032 20.839 62.6626 15.44 62.6626Z" fill="#F4F3F8"/>
<path d="M19.2308 56.0001V15.7949H38.5867C42.3392 15.7949 45.5747 16.4076 48.2933 17.6329C51.0503 18.8582 53.1754 20.6195 54.6687 22.917C56.1621 25.1761 56.9087 27.8565 56.9087 30.958C56.9087 34.0595 56.1621 36.7399 54.6687 38.999C53.1754 41.2199 51.0503 42.9238 48.2933 44.1108C45.5747 45.2978 42.3392 45.8913 38.5867 45.8913H26.7549L32.7856 40.3201L30.718 48.1026L27.8462 54.5642L19.2308 56.0001ZM45.0769 59.5898L33.4174 41.3539H47.7764L58 59.5898H50.8205H45.0769ZM32.7856 41.8134L26.7549 35.6677H37.7251C39.6014 35.6677 40.9798 35.2465 41.8605 34.4042C42.7795 33.5618 43.239 32.413 43.239 30.958C43.239 29.503 42.7795 28.3542 41.8605 27.5118C40.9798 26.6695 39.6014 26.2483 37.7251 26.2483H26.7549L32.7856 20.1026V41.8134Z" fill="#F4F3F8"/>
</svg>
