<svg width="51" height="43" viewBox="0 0 51 43" fill="none" xmlns="http://www.w3.org/2000/svg">
<path d="M25.1785 0C12.302 7.7623e-07 13.106 4.71949 13.106 4.71949L13.1204 9.60883H25.4082V11.0768H8.23973C8.23973 11.0768 0 10.2871 0 21.268C-9.18391e-07 32.249 7.19182 31.8596 7.19182 31.8596H11.4839V26.764C11.4839 26.764 11.2526 20.6857 18.5609 20.6857H30.7483C30.7483 20.6857 37.5956 20.7792 37.5956 15.0927V5.69008C37.5956 5.69008 38.6352 0 25.1785 0ZM18.403 3.28787C19.6256 3.28787 20.6137 4.12299 20.6137 5.15625C20.6137 6.18952 19.6256 7.02464 18.403 7.02464C17.1805 7.02464 16.1924 6.18952 16.1924 5.15625C16.1924 4.12299 17.1805 3.28787 18.403 3.28787Z" fill="url(#paint0_linear_77_8)"/>
<path d="M25.5442 42.6461C38.4208 42.6461 37.6167 37.9267 37.6167 37.9267L37.6024 33.0373H25.3145V31.5693H42.483C42.483 31.5693 50.7228 32.3591 50.7228 21.3781C50.7228 10.3972 43.5309 10.7866 43.5309 10.7866H39.2388V15.8822C39.2388 15.8822 39.4702 21.9605 32.1618 21.9605H19.9745C19.9745 21.9605 13.1272 21.8669 13.1272 27.5535V36.9561C13.1272 36.9561 12.0876 42.6461 25.5442 42.6461ZM32.3197 39.3583C31.0972 39.3583 30.1091 38.5232 30.1091 37.4899C30.1091 36.4566 31.0972 35.6215 32.3197 35.6215C33.5423 35.6215 34.5304 36.4566 34.5304 37.4899C34.5304 38.5232 33.5423 39.3583 32.3197 39.3583Z" fill="url(#paint1_linear_77_8)"/>
<defs>
<linearGradient id="paint0_linear_77_8" x1="487.456" y1="383.591" x2="2585.71" y2="2841.46" gradientUnits="userSpaceOnUse">
<stop stop-color="#387EB8"/>
<stop offset="1" stop-color="#366994"/>
</linearGradient>
<linearGradient id="paint1_linear_77_8" x1="732.575" y1="666.464" x2="3003.36" y2="3206.36" gradientUnits="userSpaceOnUse">
<stop stop-color="#FFE052"/>
<stop offset="1" stop-color="#FFC331"/>
</linearGradient>
</defs>
</svg>
