<svg width="51" height="44" viewBox="0 0 51 44" fill="none" xmlns="http://www.w3.org/2000/svg">
<path d="M41.9322 14.324C41.4032 14.1529 40.855 13.9909 40.2905 13.8378C40.3833 13.4819 40.4684 13.1306 40.5441 12.7854C41.7869 7.11567 40.9743 2.54812 38.1997 1.04429C35.5391 -0.397687 31.188 1.1058 26.7935 4.70012C26.3709 5.04574 25.9472 5.41168 25.5236 5.79519C25.2414 5.54145 24.9596 5.29624 24.6785 5.0617C20.073 1.21842 15.4567 -0.401185 12.6848 1.107C10.0268 2.55315 9.23961 6.84708 10.3583 12.2203C10.4663 12.7393 10.5926 13.2693 10.7354 13.8082C10.082 13.9825 9.45131 14.1683 8.84781 14.366C3.44834 16.1352 0 18.9081 0 21.7843C0 24.7548 3.7018 27.7343 9.32576 29.541C9.76958 29.6835 10.2301 29.8183 10.7047 29.9463C10.5506 30.5291 10.4167 31.1003 10.3042 31.6573C9.23752 36.9373 10.0705 41.1297 12.7214 42.5668C15.4596 44.0508 20.0551 42.5254 24.5298 38.8492C24.8835 38.5586 25.2385 38.2504 25.594 37.9274C26.0549 38.3445 26.5151 38.7393 26.9728 39.1096C31.3072 42.6151 35.588 44.0306 38.2365 42.5896C40.972 41.1012 41.861 36.5975 40.7068 31.118C40.6187 30.6995 40.5161 30.272 40.4009 29.8369C40.7236 29.7472 41.0404 29.6546 41.3493 29.5584C47.196 27.7378 51 24.7945 51 21.7843C51 18.8977 47.4405 16.1061 41.9322 14.324ZM40.6641 27.6147C40.3853 27.7015 40.0991 27.7854 39.8075 27.8667C39.1621 25.9462 38.291 23.9041 37.225 21.7943C38.2422 19.7347 39.0797 17.7187 39.7071 15.8107C40.2288 15.9526 40.7351 16.1022 41.2231 16.2601C45.9425 17.7871 48.8213 20.0447 48.8213 21.7843C48.8213 23.6372 45.7123 26.0426 40.6641 27.6147ZM38.5695 31.5157C39.0799 33.9386 39.1528 36.1293 38.8147 37.8418C38.5109 39.3806 37.9001 40.4066 37.1448 40.8175C35.5376 41.6918 32.1005 40.5553 28.3937 37.5574C27.9687 37.2137 27.5407 36.8467 27.1113 36.4584C28.5484 34.9812 29.9846 33.264 31.3863 31.3569C33.8518 31.1513 36.1811 30.8151 38.2934 30.3562C38.3975 30.7506 38.4899 31.1375 38.5695 31.5157ZM17.3871 40.6664C15.8168 41.1876 14.5661 41.2025 13.8101 40.7928C12.2014 39.9208 11.5326 36.5546 12.4448 32.0392C12.5493 31.5221 12.6737 30.9909 12.817 30.4479C14.9062 30.8821 17.2185 31.1945 19.6899 31.3828C21.101 33.249 22.5787 34.9643 24.0679 36.4663C23.7425 36.7615 23.4184 37.0425 23.0962 37.3074C21.1174 38.933 19.1346 40.0863 17.3871 40.6664ZM10.0304 27.6034C7.54358 26.8045 5.48988 25.7663 4.08216 24.6333C2.81725 23.6152 2.17861 22.6045 2.17861 21.7843C2.17861 20.0389 4.94729 17.8127 9.56496 16.2996C10.1253 16.116 10.7118 15.9429 11.3205 15.7804C11.9586 17.7315 12.7958 19.7714 13.8061 21.8341C12.7827 23.9275 11.9337 25.9999 11.2892 27.9738C10.8553 27.8566 10.4349 27.7332 10.0304 27.6034ZM12.4964 11.8271C11.538 7.22342 12.1745 3.7506 13.7763 2.87916C15.4825 1.9508 19.2554 3.27444 23.2319 6.59292C23.4861 6.80502 23.7412 7.02702 23.9971 7.2567C22.5154 8.75208 21.0512 10.4545 19.6525 12.3097C17.254 12.5187 14.958 12.8543 12.847 13.3038C12.7143 12.802 12.5967 12.309 12.4964 11.8271ZM34.4955 16.9325C33.9909 16.1132 33.4728 15.3134 32.9446 14.5353C34.5718 14.7287 36.1309 14.9853 37.595 15.2994C37.1554 16.6233 36.6076 18.0076 35.9627 19.4268C35.5001 18.6013 35.0108 17.769 34.4955 16.9325ZM25.5243 8.72009C26.5293 9.74332 27.5356 10.8857 28.5255 12.1252C27.528 12.081 26.5182 12.0579 25.5 12.0579C24.4914 12.0579 23.4891 12.0805 22.4977 12.124C23.4886 10.896 24.5037 9.75509 25.5243 8.72009ZM16.4957 16.9466C15.9916 17.7682 15.5114 18.5959 15.056 19.4252C14.4216 18.0111 13.8788 16.6204 13.4354 15.2777C14.8905 14.9717 16.4422 14.7214 18.0591 14.5318C17.5235 15.3169 17.0012 16.1229 16.4957 16.9466ZM18.1057 29.1829C16.4351 29.0077 14.8601 28.7704 13.4054 28.4728C13.8558 27.1061 14.4106 25.6857 15.0585 24.2411C15.515 25.0698 15.9971 25.8979 16.5043 26.7213C17.0209 27.56 17.5563 28.3817 18.1057 29.1829ZM25.5846 34.9928C24.552 33.9457 23.522 32.7874 22.5161 31.5415C23.4926 31.5775 24.4882 31.596 25.5 31.596C26.5395 31.596 27.5671 31.5739 28.5786 31.5316C27.5855 32.8 26.5827 33.9601 25.5846 34.9928ZM35.9835 24.1675C36.6651 25.6277 37.2398 27.0406 37.696 28.384C36.2173 28.7011 34.6208 28.9564 32.9386 29.1462C33.4681 28.3577 33.9907 27.5441 34.5042 26.7072C35.0238 25.8605 35.517 25.0125 35.9835 24.1675ZM32.617 25.6842C31.8198 26.9834 31.0013 28.2236 30.1704 29.3942C28.657 29.4959 27.0935 29.5483 25.5 29.5483C23.9129 29.5483 22.3691 29.502 20.8825 29.4113C20.0181 28.2253 19.1819 26.9814 18.3897 25.6954C17.5997 24.4129 16.8727 23.1195 16.2138 21.8334C16.8725 20.5443 17.5978 19.2495 18.3833 17.9693L18.3831 17.9696C19.1707 16.686 19.9996 15.4482 20.856 14.2696C22.3727 14.1618 23.9281 14.1056 25.4999 14.1056C27.0788 14.1056 28.6362 14.1622 30.1525 14.2709C30.9959 15.4409 31.8191 16.6747 32.6098 17.9585C33.4095 19.2567 34.1441 20.5429 34.8084 21.8043C34.1461 23.0874 33.4131 24.3866 32.617 25.6842ZM37.1114 2.81824C38.8192 3.74386 39.4834 7.47691 38.4104 12.3721C38.3419 12.6844 38.2648 13.0026 38.1811 13.325C36.0653 12.8662 33.7676 12.5247 31.3621 12.3126C29.9607 10.437 28.5085 8.73195 27.0509 7.25576C27.4428 6.90143 27.8341 6.56357 28.2238 6.24473C31.989 3.16514 35.5081 1.94927 37.1114 2.81824ZM25.5 17.5041C28.0151 17.5041 30.0541 19.4204 30.0541 21.7843C30.0541 24.1481 28.0151 26.0645 25.5 26.0645C22.9849 26.0645 20.9459 24.1481 20.9459 21.7843C20.9459 19.4204 22.9849 17.5041 25.5 17.5041Z" fill="#257BC2"/>
</svg>
