<svg width="53" height="38" viewBox="0 0 53 38" fill="none" xmlns="http://www.w3.org/2000/svg">
<path d="M53 25.9875C52.9138 23.1295 51.8271 20.3956 49.9339 18.2741C48.0407 16.1525 45.4643 14.7816 42.665 14.4061C42.4751 10.4313 40.7468 6.69215 37.8543 3.99823C34.9617 1.3043 31.1377 -0.127611 27.2102 0.0125072C24.0378 -0.0690317 20.9189 0.849875 18.2849 2.64207C15.6509 4.43427 13.6322 7.01114 12.508 10.0161C9.13058 10.4281 6.01108 12.053 3.71598 14.5956C1.42089 17.1382 0.102419 20.4299 0 23.873C0.149059 27.7349 1.80339 31.3796 4.60073 34.009C7.39806 36.6384 11.1104 38.0381 14.9248 37.9017H41.1704C44.2817 37.8524 47.2528 36.5833 49.459 34.3613C51.6652 32.1394 52.9345 29.1377 53 25.9875Z" fill="url(#paint0_linear_77_7)"/>
<path d="M39.22 27.3185V15.2326H35.881V30.0662H44.5836V27.3185H39.22ZM13.9602 21.3828C13.3198 21.0918 12.7121 20.732 12.1476 20.3095C11.8682 19.9903 11.7169 19.5768 11.7236 19.1503C11.7044 18.9391 11.7438 18.7268 11.8375 18.5371C11.9311 18.3474 12.0752 18.1881 12.2536 18.0769C12.6887 17.7377 13.2324 17.5733 13.78 17.6154C15.046 17.5833 16.2895 17.9591 17.331 18.6887V15.5653C16.1877 15.177 14.9851 14.9989 13.78 15.0394C12.3932 14.9729 11.0264 15.3938 9.91098 16.2308C9.43309 16.6122 9.05133 17.1029 8.79705 17.6626C8.54276 18.2224 8.4232 18.8352 8.44818 19.4508C8.51436 20.4233 8.86832 21.353 9.4639 22.1189C10.0595 22.8847 10.8691 23.4511 11.7872 23.7442C12.5684 24.0711 13.3 24.5084 13.9602 25.043C14.1242 25.1851 14.2563 25.3611 14.3477 25.5592C14.4391 25.7573 14.4877 25.9728 14.4902 26.1914C14.5014 26.4015 14.4584 26.611 14.3655 26.7991C14.2725 26.9873 14.1329 27.1478 13.9602 27.2648C13.4806 27.5657 12.9234 27.7151 12.3596 27.6941C10.9759 27.6639 9.65003 27.1262 8.62838 26.1807V29.4866C9.73369 30.0357 10.9482 30.3221 12.1794 30.3238C13.6135 30.4246 15.0432 30.072 16.271 29.3149C16.7715 28.9382 17.1725 28.4425 17.4388 27.8715C17.705 27.3005 17.8282 26.6718 17.7974 26.0412C17.8281 25.1163 17.5097 24.2144 16.907 23.5188C16.0947 22.5928 15.0878 21.8629 13.9602 21.3828ZM32.2876 27.0716C33.0987 25.7104 33.5071 24.142 33.4642 22.5528C33.5175 21.1522 33.2107 19.7615 32.5738 18.517C32.0397 17.4011 31.1865 16.4737 30.1252 15.8551C28.9872 15.1801 27.6795 14.8556 26.3622 14.9213C25.1051 14.9725 23.8807 15.3415 22.8006 15.9946C21.697 16.6513 20.8001 17.6116 20.2142 18.7639C19.5794 20.0389 19.249 21.4469 19.2496 22.8748C19.2513 24.1701 19.5565 25.4466 20.14 26.5993C20.6871 27.6958 21.5236 28.6172 22.5568 29.2612C23.6306 29.92 24.8531 30.2895 26.1078 30.3346L29.1288 33.9303H33.496L29.256 29.9696C30.5552 29.3697 31.6214 28.3505 32.2876 27.0716ZM28.991 26.17C28.6691 26.5791 28.2568 26.9059 27.7873 27.1241C27.3178 27.3422 26.8042 27.4456 26.288 27.4258C25.7747 27.4446 25.2647 27.3373 24.8013 27.113C24.338 26.8887 23.9352 26.5541 23.6274 26.1378C22.8833 25.1015 22.5299 23.8299 22.631 22.5528C22.5243 21.2618 22.9029 19.9776 23.691 18.9571C24.004 18.5322 24.4124 18.1889 24.8824 17.9556C25.3524 17.7223 25.8706 17.6057 26.394 17.6154C26.9072 17.5963 27.4169 17.7082 27.8763 17.9408C28.3357 18.1734 28.7299 18.5192 29.0228 18.9463C29.7771 19.9858 30.1313 21.2679 30.0192 22.5528C30.1258 23.8454 29.7599 25.1326 28.991 26.17Z" fill="#F2F2F2"/>
<defs>
<linearGradient id="paint0_linear_77_7" x1="26.5" y1="37.9124" x2="26.5" y2="-0.116294" gradientUnits="userSpaceOnUse">
<stop stop-color="#0078D4"/>
<stop offset="0.16" stop-color="#1380DA"/>
<stop offset="0.53" stop-color="#3C91E5"/>
<stop offset="0.82" stop-color="#559CEC"/>
<stop offset="1" stop-color="#5EA0EF"/>
</linearGradient>
</defs>
</svg>
