<svg width="51" height="43" viewBox="0 0 51 43" fill="none" xmlns="http://www.w3.org/2000/svg">
<path d="M0 0H50.7228V42.6462H0" fill="#3178C6"/>
<path d="M23.0828 23.6553H29.4232V20.2403H11.69V23.6553H18.0304V38.898H23.0828V23.6553ZM31.4045 38.065C33.1907 38.8322 35.5961 39.1062 37.7449 39.1062C39.5975 39.1062 41.9979 38.9038 43.8871 37.9068C44.6895 37.4653 45.3731 36.9073 45.7694 36.1576C46.1657 35.408 46.4728 34.575 46.4728 33.4922C46.4639 30.0647 43.5711 28.9286 40.7169 27.8283C39.4211 27.3327 36.5065 26.5322 36.5065 24.988C36.5065 23.7436 38.1719 23.1114 40.2909 23.1056C41.9434 23.1056 44.1645 23.5578 45.5415 24.4083V20.4935C43.682 19.8929 41.7334 19.7805 39.9937 19.7772C35.1146 19.7772 31.3094 21.4697 31.2757 25.3412C31.3243 28.2656 33.3879 29.5425 36.4273 30.7552C38.0827 31.3849 41.1399 32.1912 41.1627 33.937C41.0904 35.5671 38.7276 35.8153 37.3585 35.8278C35.2226 35.8278 32.9639 35.1456 31.4045 34.067V38.065Z" fill="white"/>
</svg>
