<svg width="58" height="47" viewBox="0 0 58 47" fill="none" xmlns="http://www.w3.org/2000/svg">
<path d="M14.8185 46.8677C11.6786 46.8677 8.84513 46.3508 6.31795 45.3169C3.79077 44.3214 1.68479 42.8472 0 40.8944L7.29436 32.279C8.3665 33.5809 9.41949 34.5764 10.4533 35.2656C11.4872 35.9166 12.5593 36.2421 13.6697 36.2421C16.5798 36.2421 18.0349 34.5764 18.0349 31.2451V10.2236H4.36513V0H31.4174V30.441C31.4174 35.9549 30.0007 40.0711 27.1672 42.7897C24.3337 45.5084 20.2174 46.8677 14.8185 46.8677Z" fill="#006D77"/>
<path d="M18.6092 40.2051V0H37.9651C41.7176 0 44.9532 0.61265 47.6718 1.83795C50.4287 3.06325 52.5538 4.82462 54.0472 7.12205C55.5405 9.3812 56.2872 12.0615 56.2872 15.1631C56.2872 18.2646 55.5405 20.945 54.0472 23.2041C52.5538 25.425 50.4287 27.1289 47.6718 28.3159C44.9532 29.5029 41.7176 30.0964 37.9651 30.0964H26.1333L32.1641 24.5251L30.0964 32.3077L27.2246 38.7692L18.6092 40.2051ZM44.4554 43.7949L32.7959 25.559H47.1549L57.3785 43.7949H50.199H44.4554ZM32.1641 26.0185L26.1333 19.8728H37.1036C38.9798 19.8728 40.3583 19.4516 41.239 18.6092C42.1579 17.7668 42.6174 16.6181 42.6174 15.1631C42.6174 13.708 42.1579 12.5593 41.239 11.7169C40.3583 10.8745 38.9798 10.4533 37.1036 10.4533H26.1333L32.1641 4.30769V26.0185Z" fill="#006D77"/>
</svg>
